<?xml version="1.0" encoding="UTF-8"?>
<svg id="Camada_2" data-name="Camada 2" xmlns="http://www.w3.org/2000/svg" viewBox="0 0 166.81 146.33">
  <defs>
    <style>
      .cls-1 {
        fill: #000;
      }

      .cls-1, .cls-2, .cls-3, .cls-4, .cls-5, .cls-6, .cls-7, .cls-8 {
        stroke-width: 0px;
      }

      .cls-2 {
        fill: #ad4055;
      }

      .cls-3 {
        fill: #a4133c;
      }

      .cls-4 {
        fill: #efedef;
      }

      .cls-5 {
        fill: #800e30;
      }

      .cls-6 {
        fill: #dd375b;
      }

      .cls-7 {
        fill: #c9194a;
      }

      .cls-8 {
        fill: #222610;
      }
    </style>
  </defs>
  <g id="Camada_4" data-name="Camada 4">
    <g>
      <path class="cls-8" d="M57.12,12.26L24.34,30.74c-1.01.57-1.99,1.21-2.91,1.91-7.05,5.41-31.47,27.86-16.85,70.25,13.4,38.86,52.23,45.1,69.73,43.1,3.48-.4,7.93-.55,11.75-1.68l38.75-11.45L57.12,12.26Z"/>
      <g>
        <ellipse class="cls-4" cx="96.49" cy="69.51" rx="68.82" ry="68.01"/>
        <path class="cls-1" d="M96.49,139.01c-38.77,0-70.32-31.18-70.32-69.51S57.72,0,96.49,0s70.32,31.18,70.32,69.51-31.54,69.51-70.32,69.51ZM96.49,3C59.37,3,29.17,32.83,29.17,69.51s30.2,66.51,67.32,66.51,67.32-29.83,67.32-66.51S133.61,3,96.49,3Z"/>
      </g>
      <g>
        <path class="cls-7" d="M98.02,69.35s-46.37-28.64-10.23-40.57c36.14-11.93,15,39.89,15,39.89,0,0-1.7-1.7-4.77.68Z"/>
        <path class="cls-3" d="M98.91,72.37s-42.12,34.58-41.7-3.48c.43-38.06,42.6-1.26,42.6-1.26,0,0-2.17,1.06-.9,4.74Z"/>
        <path class="cls-6" d="M100.13,67.1s14.79-52.45,36.2-20.98c21.4,31.47-34.23,25.39-34.23,25.39,0,0,1.17-2.11-1.97-4.4Z"/>
        <path class="cls-5" d="M102.35,70.29s19.77,50.79-16.27,38.55c-36.04-12.24,12.05-40.88,12.05-40.88,0,0,3.64-1.68,4.22,2.33Z"/>
        <path class="cls-2" d="M102.93,67.25s54.47-1.62,30.87,28.24c-23.6,29.86-34.48-25.04-34.48-25.04,0,0-.37-3.99,3.61-3.2Z"/>
        <path class="cls-1" d="M96.49,112c-2.29,0-4.87-.49-7.73-1.47-9.38-3.22-14.48-6.69-16.05-10.93-1.51-4.07.35-8.41,2.84-12.97-3.19.98-8.53,1.9-12.76-.93-4.23-2.83-6.24-8.66-5.97-17.31.26-8.39,2.46-14.01,6.54-16.71,4.5-2.98,10.18-1.68,13.84-.39-2.13-3.19-4.69-8.39-3.33-13.53,1.33-5.01,6.05-8.72,14.04-11.05,8.36-2.44,14.5-2.01,18.25,1.25,4.1,3.57,4.39,9.6,4.12,13.81,2.49-3.11,6.8-7.27,12.19-7.51,4.95-.21,9.59,2.87,13.92,9.16,5.39,7.84,6.96,14.39,4.68,19.46-1.79,3.98-5.61,6.18-8.82,7.25,2.92,1.4,6.88,4.05,8.3,8.49,1.5,4.69-.22,10.17-5.09,16.29-5.78,7.24-10.92,10.69-15.77,10.49-4.89-.19-8.4-4.1-11.08-7.8-.14,3.55-1.04,8.87-4.78,11.98-1.94,1.61-4.4,2.42-7.33,2.42ZM81.1,81.91l-1.63,2.92c-2.89,5.18-5.38,9.65-3.99,13.46,1.29,3.53,5.82,6.55,14.28,9.49,5.62,1.96,9.87,1.76,12.64-.57,4.8-4.04,3.82-13.33,3.81-13.43l-.46-4.12,2.66,3.94c2.66,3.94,5.96,8.85,10.69,9.04,3.95.16,8.52-3.05,13.61-9.53,4.26-5.41,5.8-10.13,4.57-14.01-1.89-6.01-9.82-8.22-9.9-8.24l-5.53-1.5,5.69-.56c2.14-.21,8.17-1.83,10.32-6.69,1.89-4.25.42-9.98-4.34-17.02-3.76-5.56-7.7-8.3-11.72-8.1-7.1.32-12.34,9.54-12.39,9.63l-2.26,4.05.38-4.66c.02-.27.06-.62.11-1.03.37-3.27,1.24-10.92-3.01-14.68-3.08-2.73-8.39-3-15.79-.81-6.99,2.07-11.09,5.22-12.18,9.38-1.78,6.79,5,14.29,5.07,14.36l2.48,2.71-3.48-.97c-.24-.07-.58-.21-1.09-.43-2.54-1.08-9.3-3.95-14-.79-3.35,2.26-5.17,7.21-5.4,14.71-.24,7.71,1.4,12.82,4.86,15.17,5.2,3.54,12.98-.23,13.06-.27l2.94-1.45Z"/>
      </g>
    </g>
  </g>
</svg>