<?xml version="1.0" encoding="UTF-8"?>
<svg id="Camada_2" data-name="Camada 2" xmlns="http://www.w3.org/2000/svg" viewBox="0 0 360.85 76">
  <defs>
    <style>
      .cls-1 {
        fill: #000;
      }

      .cls-1, .cls-2, .cls-3, .cls-4, .cls-5, .cls-6, .cls-7, .cls-8, .cls-9 {
        stroke-width: 0px;
      }

      .cls-2 {
        fill: #ad4055;
      }

      .cls-3 {
        fill: #a4133c;
      }

      .cls-4 {
        fill: #efedef;
      }

      .cls-5 {
        fill: #800e30;
      }

      .cls-6 {
        fill: #dd375b;
      }

      .cls-7 {
        fill: #c9194a;
      }

      .cls-8 {
        fill: #fff;
      }

      .cls-9 {
        fill: #222610;
      }
    </style>
  </defs>
  <g id="flor">
    <g>
      <path class="cls-8" d="M93.72,50.15c-.1-1.87-.23-3.39-.39-4.57,2.41,1.09,4.6,1.64,6.57,1.63.79,0,1.52-.12,2.2-.36s1.19-.58,1.51-1.02c.33-.44.49-.93.49-1.47,0-.42-.08-.79-.24-1.12-.24-.45-.63-.93-1.18-1.42-.7-.68-1.96-1.79-3.76-3.33-.86-.75-1.46-1.28-1.78-1.6-.74-.7-1.3-1.33-1.7-1.89s-.68-1.12-.85-1.67c-.17-.55-.26-1.14-.26-1.77,0-1.16.32-2.24.97-3.25.64-1.02,1.61-1.81,2.89-2.38,1.28-.57,2.9-.86,4.86-.86,1.76,0,3.74.21,5.94.64.06,1.28.19,2.74.37,4.39-1.91-.74-3.68-1.1-5.3-1.1-1.2,0-2.19.28-2.95.82s-1.15,1.18-1.15,1.91c0,.2.03.4.08.62s.13.42.24.63c.11.2.3.47.57.79.27.32.68.71,1.2,1.14.53.44.98.79,1.35,1.06l2.28,2.06c.58.48,1.09.95,1.55,1.4s.84.89,1.17,1.31.58.82.76,1.2c.18.38.32.77.42,1.17.09.4.14.82.14,1.26,0,1.03-.24,2.01-.72,2.92-.48.92-1.17,1.67-2.06,2.26-.9.59-1.88,1-2.95,1.23-1.07.23-2.2.34-3.39.34-.79,0-1.7-.07-2.75-.2-1.05-.13-2.42-.39-4.13-.77Z"/>
      <path class="cls-8" d="M110.39,50.67c1.28-2.26,2.78-5.06,4.49-8.39l4.84-9.32c1.51-2.88,2.76-5.37,3.76-7.47,1.6.02,2.73.03,3.39.03,1.17,0,2.31-.01,3.43-.04l2.64,7.54,5.74,15.59.79,2.03-2.76-.03c-.64,0-1.71.01-3.22.04-.3-1.09-.76-2.57-1.4-4.42-.64-1.85-1.18-3.36-1.62-4.52h-9.7c-1.43,2.94-2.83,5.92-4.19,8.96l-3.01-.03c-.57,0-1.63.01-3.19.04ZM122.41,37.88h7.07s-2.91-8.54-2.91-8.54l-1.49,3.1-2.67,5.43Z"/>
      <path class="cls-8" d="M142.16,50.64c.21-2.41.36-4.49.45-6.23.14-2.5.31-6.02.49-10.58.12-3.12.18-5.34.18-6.64v-1.71c1.52.02,2.53.03,3.01.03.32,0,1.27-.01,2.84-.04l-.57,9.96-.49,11.93-.05,3.28-2.85-.03c-.34,0-1.34.01-3,.04ZM148.84,37.32l4.18-5.14,3.81-4.85c.27-.36.72-.98,1.36-1.86l3.32.03c.13,0,1.19-.01,3.17-.04l-8.48,9.98-1.44,1.79,1.16,1.66c.17.23,1.39,1.83,3.66,4.79l5.38,6.95-3.28-.03c-.58,0-1.78.01-3.59.04l-1.18-1.84c-.22-.36-.62-.94-1.18-1.75l-5.02-7.15-1.87-2.56Z"/>
      <path class="cls-8" d="M168.49,25.45c1.42.02,2.39.03,2.89.03.63,0,1.56-.01,2.8-.04l-.86,14.88c-.01.17-.02.36-.02.55,0,1.66.24,2.91.71,3.74.47.84,1.17,1.44,2.09,1.82s1.97.57,3.15.57c.75,0,1.46-.09,2.14-.26.55-.15,1.06-.35,1.51-.61.37-.22.69-.48.98-.78.33-.36.61-.77.83-1.24.23-.45.4-.97.52-1.55.16-.87.31-2.39.44-4.56l.39-6.42c.09-1.87.15-3.93.2-6.18,1.39.02,2.42.03,3.09.03l2.69-.04-.56,8.89-.36,7.06c-.11,1.65-.28,2.88-.51,3.69-.2.68-.47,1.3-.83,1.88-.34.52-.75.98-1.23,1.38-.61.53-1.33.98-2.16,1.37-.92.43-1.9.75-2.93.94-1.43.27-2.9.41-4.41.41s-3-.14-4.35-.42c-1.16-.25-2.22-.62-3.18-1.14-.97-.51-1.73-1.09-2.3-1.73-.46-.52-.82-1.16-1.09-1.93-.31-.86-.46-1.82-.46-2.88,0-.37.01-.84.04-1.43s.07-1.34.13-2.26l.16-2.6c.06-.81.13-2,.2-3.58l.18-4c.05-1.09.09-2.3.13-3.63Z"/>
      <path class="cls-8" d="M195.82,50.6c.37-3.66.64-7.87.82-12.63.18-4.76.27-8.94.27-12.54,1.47.02,2.71.03,3.71.03,1.07,0,2.12-.02,3.14-.06,1.03-.04,2.11-.06,3.25-.06,1.42,0,2.7.08,3.82.24,1.13.16,2.12.53,3,1.1.87.58,1.52,1.28,1.95,2.1.42.82.64,1.78.64,2.88,0,.69-.08,1.34-.24,1.96-.16.62-.4,1.21-.71,1.75s-.68,1.03-1.11,1.44c-.43.41-.86.74-1.28.98-.42.24-.91.45-1.45.62s-1.27.38-2.18.63l1.26,2.43c.41.77,1.18,2.16,2.31,4.17l1.87,3.26c.1.17.39.73.89,1.68-1.5-.02-2.5-.03-2.98-.03-.59,0-1.63.01-3.12.04l-2.05-4.9c-.36-.75-.79-1.63-1.29-2.65l-2.23-4.48c-.22-.42-.53-1.04-.92-1.88.82.15,1.57.22,2.25.22,1.06,0,2.02-.17,2.9-.52.87-.34,1.54-.88,2.01-1.6.47-.72.7-1.5.7-2.35,0-.52-.1-1-.31-1.44-.2-.44-.54-.82-1.02-1.12-.48-.31-1.05-.5-1.72-.59-.66-.09-1.33-.13-1.99-.13-.37,0-.87,0-1.51.02-.64.01-1.43.02-2.36.02l-.32,7.58-.34,13.83-2.86-.03c-.46,0-1.38.01-2.79.04Z"/>
      <path class="cls-8" d="M216.34,50.58c1.28-2.26,2.78-5.06,4.49-8.39l4.84-9.32c1.51-2.88,2.76-5.37,3.76-7.47,1.6.02,2.73.03,3.39.03,1.17,0,2.31-.01,3.43-.04l2.64,7.54,5.74,15.59.79,2.03-2.76-.03c-.64,0-1.71.01-3.22.04-.3-1.09-.76-2.57-1.4-4.42-.64-1.85-1.18-3.36-1.62-4.52h-9.7c-1.43,2.94-2.83,5.92-4.19,8.96l-3.01-.03c-.57,0-1.63.01-3.19.04ZM228.37,37.79h7.07s-2.91-8.54-2.91-8.54l-1.49,3.1-2.67,5.43Z"/>
      <path class="cls-8" d="M256.91,50c-.1-1.87-.23-3.39-.39-4.57,2.41,1.09,4.6,1.64,6.57,1.63.79,0,1.52-.12,2.2-.36s1.19-.58,1.51-1.02c.33-.44.49-.93.49-1.47,0-.42-.08-.79-.24-1.12-.24-.45-.63-.93-1.18-1.42-.7-.68-1.96-1.79-3.76-3.33-.86-.75-1.46-1.28-1.78-1.6-.74-.7-1.3-1.33-1.7-1.89s-.68-1.12-.85-1.67c-.17-.55-.26-1.14-.26-1.77,0-1.16.32-2.24.97-3.25.64-1.02,1.61-1.81,2.89-2.38,1.28-.57,2.9-.86,4.86-.86,1.76,0,3.74.21,5.94.64.06,1.28.19,2.74.37,4.39-1.91-.74-3.68-1.1-5.3-1.1-1.2,0-2.19.28-2.95.82s-1.15,1.18-1.15,1.91c0,.2.03.4.08.62s.13.42.24.63c.11.2.3.47.57.79.27.32.68.71,1.2,1.14.53.44.98.79,1.35,1.06l2.28,2.06c.58.48,1.09.95,1.55,1.4s.84.89,1.17,1.31.58.82.76,1.2c.18.38.32.77.42,1.17.09.4.14.82.14,1.26,0,1.03-.24,2.01-.72,2.92-.48.92-1.17,1.67-2.06,2.26-.9.59-1.88,1-2.95,1.23-1.07.23-2.2.34-3.39.34-.79,0-1.7-.07-2.75-.2-1.05-.13-2.42-.39-4.13-.77Z"/>
      <path class="cls-8" d="M277.91,25.35c1.42.02,2.39.03,2.89.03.63,0,1.56-.01,2.8-.04l-.86,14.88c-.01.17-.02.36-.02.55,0,1.66.24,2.91.71,3.74.47.84,1.17,1.44,2.09,1.82s1.97.57,3.15.57c.75,0,1.46-.09,2.14-.26.55-.15,1.06-.35,1.51-.61.37-.22.69-.48.98-.78.33-.36.61-.77.83-1.24.23-.45.4-.97.52-1.55.16-.87.31-2.39.44-4.56l.39-6.42c.09-1.87.15-3.93.2-6.18,1.39.02,2.42.03,3.09.03l2.69-.04-.56,8.89-.36,7.06c-.11,1.65-.28,2.88-.51,3.69-.2.68-.47,1.3-.83,1.88-.34.52-.75.98-1.23,1.38-.61.53-1.33.98-2.16,1.37-.92.43-1.9.75-2.93.94-1.43.27-2.9.41-4.41.41s-3-.14-4.35-.42c-1.16-.25-2.22-.62-3.18-1.14-.97-.51-1.73-1.09-2.3-1.73-.46-.52-.82-1.16-1.09-1.93-.31-.86-.46-1.82-.46-2.88,0-.37.01-.84.04-1.43s.07-1.34.13-2.26l.16-2.6c.06-.81.13-2,.2-3.58l.18-4c.05-1.09.09-2.3.13-3.63Z"/>
      <path class="cls-8" d="M304.63,49.96c-.1-1.87-.23-3.39-.39-4.57,2.41,1.09,4.6,1.64,6.57,1.63.79,0,1.52-.12,2.2-.36s1.19-.58,1.51-1.02c.33-.44.49-.93.49-1.47,0-.42-.08-.79-.24-1.12-.24-.45-.63-.93-1.18-1.42-.7-.68-1.96-1.79-3.76-3.33-.86-.75-1.46-1.28-1.78-1.6-.74-.7-1.3-1.33-1.7-1.89s-.68-1.12-.85-1.67c-.17-.55-.26-1.14-.26-1.77,0-1.16.32-2.24.97-3.25.64-1.02,1.61-1.81,2.89-2.38,1.28-.57,2.9-.86,4.86-.86,1.76,0,3.74.21,5.94.64.06,1.28.19,2.74.37,4.39-1.91-.74-3.68-1.1-5.3-1.1-1.2,0-2.19.28-2.95.82s-1.15,1.18-1.15,1.91c0,.2.03.4.08.62s.13.42.24.63c.11.2.3.47.57.79.27.32.68.71,1.2,1.14.53.44.98.79,1.35,1.06l2.28,2.06c.58.48,1.09.95,1.55,1.4s.84.89,1.17,1.31.58.82.76,1.2c.18.38.32.77.42,1.17.09.4.14.82.14,1.26,0,1.03-.24,2.01-.72,2.92-.48.92-1.17,1.67-2.06,2.26-.9.59-1.88,1-2.95,1.23-1.07.23-2.2.34-3.39.34-.79,0-1.7-.07-2.75-.2-1.05-.13-2.42-.39-4.13-.77Z"/>
      <path class="cls-8" d="M324.67,50.48l.42-6.62c.23-3.61.4-6.97.49-10.06.1-3.09.14-5.25.14-6.46l-.02-2.03c1.45.02,2.47.03,3.07.03.45,0,1.38-.01,2.78-.04l-.48,8.32-.05,1.92h12.55s.22-5,.22-5c.05-1.71.07-2.84.07-3.38v-1.87s3.08.03,3.08.03c.27,0,1.19-.01,2.77-.04l-.6,10.05-.25,7.45-.06,4.37c-.02,1.79-.03,2.9-.03,3.3l-2.88-.03c-.36,0-1.38.01-3.06.04.32-3.48.52-7.14.6-10.97h-12.59s-.25,6.8-.25,6.8l-.07,4.19-3.03-.03c-.33,0-1.27.01-2.82.04Z"/>
      <path class="cls-8" d="M353.99,50.45c.29-4.23.52-8.57.7-13.01.18-4.44.27-7.84.27-10.19l-.02-1.97,3.08.03c.17,0,1.11-.01,2.82-.04-.5,6.47-.81,14.86-.93,25.17l-2.71-.03c-.46,0-1.53.01-3.21.04Z"/>
    </g>
  </g>
  <g id="Camada_4" data-name="Camada 4">
    <g>
      <path class="cls-9" d="M29.67,6.37L12.64,15.97c-.53.3-1.03.63-1.51.99-3.66,2.81-16.34,14.47-8.75,36.48,6.96,20.18,27.12,23.42,36.21,22.38,1.81-.21,4.12-.29,6.1-.87l20.13-5.95L29.67,6.37Z"/>
      <g>
        <ellipse class="cls-4" cx="50.11" cy="36.1" rx="35.74" ry="35.32"/>
        <path class="cls-1" d="M50.11,72.2c-20.14,0-36.52-16.19-36.52-36.1S29.98,0,50.11,0s36.52,16.19,36.52,36.1-16.38,36.1-36.52,36.1ZM50.11,1.56C30.84,1.56,15.15,17.05,15.15,36.1s15.68,34.54,34.96,34.54,34.96-15.5,34.96-34.54S69.39,1.56,50.11,1.56Z"/>
      </g>
      <g>
        <path class="cls-7" d="M50.91,36.02s-24.08-14.87-5.31-21.07c18.77-6.2,7.79,20.72,7.79,20.72,0,0-.89-.89-2.48.35Z"/>
        <path class="cls-3" d="M51.37,37.59s-21.88,17.96-21.66-1.8c.22-19.77,22.12-.65,22.12-.65,0,0-1.12.55-.47,2.46Z"/>
        <path class="cls-6" d="M52,34.85s7.68-27.24,18.8-10.9c11.12,16.34-17.78,13.18-17.78,13.18,0,0,.61-1.09-1.02-2.29Z"/>
        <path class="cls-5" d="M53.16,36.51s10.27,26.38-8.45,20.02c-18.72-6.36,6.26-21.23,6.26-21.23,0,0,1.89-.87,2.19,1.21Z"/>
        <path class="cls-2" d="M53.46,34.93s28.29-.84,16.04,14.67c-12.26,15.51-17.91-13.01-17.91-13.01,0,0-.19-2.07,1.87-1.66Z"/>
        <path class="cls-1" d="M50.12,58.17c-1.19,0-2.53-.25-4.01-.76-4.87-1.67-7.52-3.48-8.34-5.68-.78-2.12.18-4.37,1.47-6.74-1.66.51-4.43.99-6.63-.48-2.2-1.47-3.24-4.5-3.1-8.99.14-4.36,1.28-7.27,3.4-8.68,2.34-1.55,5.29-.87,7.19-.2-1.11-1.66-2.44-4.36-1.73-7.03.69-2.6,3.14-4.53,7.29-5.74,4.34-1.26,7.53-1.05,9.48.65,2.13,1.85,2.28,4.98,2.14,7.17,1.29-1.61,3.53-3.78,6.33-3.9,2.57-.11,4.98,1.49,7.23,4.76,2.8,4.07,3.62,7.47,2.43,10.11-.93,2.06-2.91,3.21-4.58,3.77,1.52.73,3.57,2.1,4.31,4.41.78,2.44-.11,5.28-2.65,8.46-3,3.76-5.67,5.55-8.19,5.45-2.54-.1-4.36-2.13-5.75-4.05-.08,1.84-.54,4.61-2.48,6.22-1.01.84-2.28,1.26-3.81,1.26ZM42.12,42.54l-.84,1.52c-1.5,2.69-2.79,5.01-2.07,6.99.67,1.83,3.02,3.4,7.42,4.93,2.92,1.02,5.13.92,6.57-.3,2.49-2.1,1.98-6.93,1.98-6.97l-.24-2.14,1.38,2.04c1.38,2.05,3.1,4.6,5.55,4.69,2.05.08,4.43-1.59,7.07-4.95,2.21-2.81,3.01-5.26,2.38-7.28-.98-3.12-5.1-4.27-5.14-4.28l-2.87-.78,2.95-.29c1.11-.11,4.24-.95,5.36-3.48.98-2.21.22-5.18-2.26-8.84-1.95-2.89-4-4.31-6.09-4.21-3.69.16-6.41,4.96-6.44,5l-1.18,2.1.2-2.42c.01-.14.03-.32.06-.54.19-1.7.65-5.67-1.56-7.62-1.6-1.42-4.36-1.56-8.2-.42-3.63,1.07-5.76,2.71-6.33,4.87-.93,3.53,2.6,7.42,2.63,7.46l1.29,1.41-1.81-.5c-.13-.04-.3-.11-.57-.22-1.32-.56-4.83-2.05-7.27-.41-1.74,1.17-2.69,3.74-2.81,7.64-.12,4.01.73,6.66,2.52,7.88,2.7,1.84,6.74-.12,6.78-.14l1.52-.75Z"/>
      </g>
    </g>
  </g>
</svg>